# xmcd
#
# Track frame offsets:
# 150
# 13592
# 29852
# 44392
# 60262
# 74587
# 87490
# 105132
# 124135
# 143235
# 163095
# 173062
# 188575
# 213325
#
# Disc length: 3137 seconds
#
# Revision: 0
# Processed by: cddbd v1.4PL0 Copyright (c) Steve Scherf et al.
# Submitted via: MacMP3 Pro 5.0 (http://mp3.act2.co.jp/)
#
DISCID=c00c3f0e
DTITLE=The Brian Jonestown Massacre - Strung Out In Heaven
DYEAR=1900
DGENRE=
TTITLE0=Going To Hell
TTITLE1=Let's Pretend It's Summer
TTITLE2=Wasting Away
TTITLE3=Jennifer
TTITLE4=Got My Eye On You
TTITLE5=Nothing To Loose
TTITLE6=Love
TTITLE7=Maybe Tomorrow
TTITLE8=Spun
TTITLE9=I've Been Waiting
TTITLE10=Dawn
TTITLE11=Lantern
TTITLE12=Wisdom
TTITLE13=Untitled(Bonus Track For Japan)
EXTD=
EXTT0=
EXTT1=
EXTT2=
EXTT3=
EXTT4=
EXTT5=
EXTT6=
EXTT7=
EXTT8=
EXTT9=
EXTT10=
EXTT11=
EXTT12=
EXTT13=
PLAYORDER=
